#Comment line ignore any data following # character 
#Hierarchical Translation and Rotation (.htr) file 
[Header]	
#Header keywords are followed by a single value 
FileType HTR		#Single word string
DataType HTRS		#Translation followed by rotation and scale data
FileVersion 1		#integer
NumSegments 84		#integer
NumFrames 2		#integer
DataFrameRate 30		#integer, data frame rate in this file
EulerRotationOrder ZYX
CalibrationUnits mm
RotationUnits Degrees
GlobalAxisofGravity Y
BoneLengthAxis Y
ScaleFactor 1.00
[SegmentNames&Hierarchy]
#CHILD	PARENT
MASTER GLOBAL
root MASTER
chest root
L_mid_tent01 root
R_mid_tent01 root
spine01 root
Bip01_Neck chest
L_humerus chest
R_humerus chest
weapon_bone chest
Bip01_Head Bip01_Neck
eye_left_bone Bip01_Head
eye_right_bone Bip01_Head
L_forearm L_humerus
L_front_hand L_forearm
L_weapon_bone L_forearm
L_front_hand01_01 L_front_hand
L_front_hand02_01 L_front_hand
L_front_hand03_01 L_front_hand
L_front_hand01_02 L_front_hand01_01
L_front_hand02_02 L_front_hand02_01
L_front_hand03_02 L_front_hand03_01
R_forearm R_humerus
R_front_hand R_forearm
R_weapon_bone R_forearm
R_front_hand01_01 R_front_hand
R_front_hand02_01 R_front_hand
R_front_hand03_01 R_front_hand
R_front_hand01_02 R_front_hand01_01
R_front_hand02_02 R_front_hand02_01
R_front_hand03_02 R_front_hand03_01
null_rope01_connect L_mid_tent01
Rope1_Seg01 null_rope01_connect
Rope1_Seg02 Rope1_Seg01
Rope1_Seg03 Rope1_Seg02
Rope1_Seg04 Rope1_Seg03
Rope1_Seg05 Rope1_Seg04
Rope1_Seg06 Rope1_Seg05
Rope1_Seg07 Rope1_Seg06
Rope1_Seg09 Rope1_Seg07
L_mid_hand01 Rope1_Seg09
L_mid_hand02 Rope1_Seg09
L_mid_hand03 Rope1_Seg09
null_rope02_connect R_mid_tent01
Rope2_Seg01 null_rope02_connect
Rope2_Seg02 Rope2_Seg01
Rope2_Seg03 Rope2_Seg02
Rope2_Seg04 Rope2_Seg03
Rope2_Seg05 Rope2_Seg04
Rope2_Seg06 Rope2_Seg05
Rope2_Seg07 Rope2_Seg06
Rope2_Seg09 Rope2_Seg07
R_mid_hand01 Rope2_Seg09
R_mid_hand02 Rope2_Seg09
R_mid_hand03 Rope2_Seg09
spine02 spine01
spine03 spine02
pelvis spine03
null_rope03_connect pelvis
null_rope04_connect pelvis
Rope3_Seg01 null_rope03_connect
Rope3_Seg02 Rope3_Seg01
Rope3_Seg03 Rope3_Seg02
Rope3_Seg04 Rope3_Seg03
Rope3_Seg05 Rope3_Seg04
Rope3_Seg06 Rope3_Seg05
Rope3_Seg07 Rope3_Seg06
Rope3_Seg08 Rope3_Seg07
Rope3_Seg09 Rope3_Seg08
R_rear_hand01 Rope3_Seg09
R_rear_hand02 Rope3_Seg09
R_rear_hand03 Rope3_Seg09
Rope4_Seg01 null_rope04_connect
Rope4_Seg02 Rope4_Seg01
Rope4_Seg03 Rope4_Seg02
Rope4_Seg04 Rope4_Seg03
Rope4_Seg05 Rope4_Seg04
Rope4_Seg06 Rope4_Seg05
Rope4_Seg07 Rope4_Seg06
Rope4_Seg08 Rope4_Seg07
Rope4_Seg09 Rope4_Seg08
L_rear_hand01 Rope4_Seg09
L_rear_hand02 Rope4_Seg09
L_rear_hand03 Rope4_Seg09
[BasePosition]
#SegmentName Tx, Ty, Tz, Rx, Ry, Rz, BoneLength
MASTER 0.000000 0.000000 0.000000 -90.000000 0.000000 0.000000 10.000000 
root 0.000000 0.000000 0.000000 0.000000 0.000000 0.000000 10.000000 
chest 0.000000 0.000000 0.000000 0.000000 0.000000 0.000000 10.000000 
L_mid_tent01 0.000000 0.000000 0.000000 0.000000 0.000000 0.000000 10.000000 
R_mid_tent01 0.000000 0.000000 0.000000 0.000000 0.000000 0.000000 10.000000 
spine01 0.000000 0.000000 0.000000 0.000000 0.000000 0.000000 10.000000 
Bip01_Neck 0.000000 0.000000 0.000000 0.000000 0.000000 0.000000 10.000000 
L_humerus 0.000000 0.000000 0.000000 0.000000 0.000000 0.000000 10.000000 
R_humerus 0.000000 0.000000 0.000000 0.000000 0.000000 0.000000 10.000000 
weapon_bone 0.000000 0.000000 0.000000 0.000000 0.000000 0.000000 10.000000 
Bip01_Head 0.000000 0.000000 0.000000 0.000000 0.000000 0.000000 10.000000 
eye_left_bone 0.000000 0.000000 0.000000 0.000000 0.000000 0.000000 10.000000 
eye_right_bone 0.000000 0.000000 0.000000 0.000000 0.000000 0.000000 10.000000 
L_forearm 0.000000 0.000000 0.000000 0.000000 0.000000 0.000000 10.000000 
L_front_hand 0.000000 0.000000 0.000000 0.000000 0.000000 0.000000 10.000000 
L_weapon_bone 0.000000 0.000000 0.000000 0.000000 0.000000 0.000000 10.000000 
L_front_hand01_01 0.000000 0.000000 0.000000 0.000000 0.000000 0.000000 10.000000 
L_front_hand02_01 0.000000 0.000000 0.000000 0.000000 0.000000 0.000000 10.000000 
L_front_hand03_01 0.000000 0.000000 0.000000 0.000000 0.000000 0.000000 10.000000 
L_front_hand01_02 0.000000 0.000000 0.000000 0.000000 0.000000 0.000000 10.000000 
L_front_hand02_02 0.000000 0.000000 0.000000 0.000000 0.000000 0.000000 10.000000 
L_front_hand03_02 0.000000 0.000000 0.000000 0.000000 0.000000 0.000000 10.000000 
R_forearm 0.000000 0.000000 0.000000 0.000000 0.000000 0.000000 10.000000 
R_front_hand 0.000000 0.000000 0.000000 0.000000 0.000000 0.000000 10.000000 
R_weapon_bone 0.000000 0.000000 0.000000 0.000000 0.000000 0.000000 10.000000 
R_front_hand01_01 0.000000 0.000000 0.000000 0.000000 0.000000 0.000000 10.000000 
R_front_hand02_01 0.000000 0.000000 0.000000 0.000000 0.000000 0.000000 10.000000 
R_front_hand03_01 0.000000 0.000000 0.000000 0.000000 0.000000 0.000000 10.000000 
R_front_hand01_02 0.000000 0.000000 0.000000 0.000000 0.000000 0.000000 10.000000 
R_front_hand02_02 0.000000 0.000000 0.000000 0.000000 0.000000 0.000000 10.000000 
R_front_hand03_02 0.000000 0.000000 0.000000 0.000000 0.000000 0.000000 10.000000 
null_rope01_connect 0.000000 0.000000 0.000000 0.000000 0.000000 0.000000 10.000000 
Rope1_Seg01 0.000000 0.000000 0.000000 0.000000 0.000000 0.000000 10.000000 
Rope1_Seg02 0.000000 0.000000 0.000000 0.000000 0.000000 0.000000 10.000000 
Rope1_Seg03 0.000000 0.000000 0.000000 0.000000 0.000000 0.000000 10.000000 
Rope1_Seg04 0.000000 0.000000 0.000000 0.000000 0.000000 0.000000 10.000000 
Rope1_Seg05 0.000000 0.000000 0.000000 0.000000 0.000000 0.000000 10.000000 
Rope1_Seg06 0.000000 0.000000 0.000000 0.000000 0.000000 0.000000 10.000000 
Rope1_Seg07 0.000000 0.000000 0.000000 0.000000 0.000000 0.000000 10.000000 
Rope1_Seg09 0.000000 0.000000 0.000000 0.000000 0.000000 0.000000 10.000000 
L_mid_hand01 0.000000 0.000000 0.000000 0.000000 0.000000 0.000000 10.000000 
L_mid_hand02 0.000000 0.000000 0.000000 0.000000 0.000000 0.000000 10.000000 
L_mid_hand03 0.000000 0.000000 0.000000 0.000000 0.000000 0.000000 10.000000 
null_rope02_connect 0.000000 0.000000 0.000000 0.000000 0.000000 0.000000 10.000000 
Rope2_Seg01 0.000000 0.000000 0.000000 0.000000 0.000000 0.000000 10.000000 
Rope2_Seg02 0.000000 0.000000 0.000000 0.000000 0.000000 0.000000 10.000000 
Rope2_Seg03 0.000000 0.000000 0.000000 0.000000 0.000000 0.000000 10.000000 
Rope2_Seg04 0.000000 0.000000 0.000000 0.000000 0.000000 0.000000 10.000000 
Rope2_Seg05 0.000000 0.000000 0.000000 0.000000 0.000000 0.000000 10.000000 
Rope2_Seg06 0.000000 0.000000 0.000000 0.000000 0.000000 0.000000 10.000000 
Rope2_Seg07 0.000000 0.000000 0.000000 0.000000 0.000000 0.000000 10.000000 
Rope2_Seg09 0.000000 0.000000 0.000000 0.000000 0.000000 0.000000 10.000000 
R_mid_hand01 0.000000 0.000000 0.000000 0.000000 0.000000 0.000000 10.000000 
R_mid_hand02 0.000000 0.000000 0.000000 0.000000 0.000000 0.000000 10.000000 
R_mid_hand03 0.000000 0.000000 0.000000 0.000000 0.000000 0.000000 10.000000 
spine02 0.000000 0.000000 0.000000 0.000000 0.000000 0.000000 10.000000 
spine03 0.000000 0.000000 0.000000 0.000000 0.000000 0.000000 10.000000 
pelvis 0.000000 0.000000 0.000000 0.000000 0.000000 0.000000 10.000000 
null_rope03_connect 0.000000 0.000000 0.000000 0.000000 0.000000 0.000000 10.000000 
null_rope04_connect 0.000000 0.000000 0.000000 0.000000 0.000000 0.000000 10.000000 
Rope3_Seg01 0.000000 0.000000 0.000000 0.000000 0.000000 0.000000 10.000000 
Rope3_Seg02 0.000000 0.000000 0.000000 0.000000 0.000000 0.000000 10.000000 
Rope3_Seg03 0.000000 0.000000 0.000000 0.000000 0.000000 0.000000 10.000000 
Rope3_Seg04 0.000000 0.000000 0.000000 0.000000 0.000000 0.000000 10.000000 
Rope3_Seg05 0.000000 0.000000 0.000000 0.000000 0.000000 0.000000 10.000000 
Rope3_Seg06 0.000000 0.000000 0.000000 0.000000 0.000000 0.000000 10.000000 
Rope3_Seg07 0.000000 0.000000 0.000000 0.000000 0.000000 0.000000 10.000000 
Rope3_Seg08 0.000000 0.000000 0.000000 0.000000 0.000000 0.000000 10.000000 
Rope3_Seg09 0.000000 0.000000 0.000000 0.000000 0.000000 0.000000 10.000000 
R_rear_hand01 0.000000 0.000000 0.000000 0.000000 0.000000 0.000000 10.000000 
R_rear_hand02 0.000000 0.000000 0.000000 0.000000 0.000000 0.000000 10.000000 
R_rear_hand03 0.000000 0.000000 0.000000 0.000000 0.000000 0.000000 10.000000 
Rope4_Seg01 0.000000 0.000000 0.000000 0.000000 0.000000 0.000000 10.000000 
Rope4_Seg02 0.000000 0.000000 0.000000 0.000000 0.000000 0.000000 10.000000 
Rope4_Seg03 0.000000 0.000000 0.000000 0.000000 0.000000 0.000000 10.000000 
Rope4_Seg04 0.000000 0.000000 0.000000 0.000000 0.000000 0.000000 10.000000 
Rope4_Seg05 0.000000 0.000000 0.000000 0.000000 0.000000 0.000000 10.000000 
Rope4_Seg06 0.000000 0.000000 0.000000 0.000000 0.000000 0.000000 10.000000 
Rope4_Seg07 0.000000 0.000000 0.000000 0.000000 0.000000 0.000000 10.000000 
Rope4_Seg08 0.000000 0.000000 0.000000 0.000000 0.000000 0.000000 10.000000 
Rope4_Seg09 0.000000 0.000000 0.000000 0.000000 0.000000 0.000000 10.000000 
L_rear_hand01 0.000000 0.000000 0.000000 0.000000 0.000000 0.000000 10.000000 
L_rear_hand02 0.000000 0.000000 0.000000 0.000000 0.000000 0.000000 10.000000 
L_rear_hand03 0.000000 0.000000 0.000000 0.000000 0.000000 0.000000 10.000000 
#Beginning of Data. Separated by tabs
#Fr	Tx	Ty	Tz	Rx	Ry	Rz	SF
[MASTER]
11 -0.000270 1804.619385 3042.399902 0.001660 0.001660 0.001660 3537.350342
12 -0.000303 2027.734497 3283.811768 0.001660 0.001660 0.001660 3859.420410
[root]
11 -34.992115 -45.193481 1495.281006 -83.232216 -3.790584 -93.083687 1496.372925
12 -36.519958 -48.508907 1499.161621 -84.091530 -4.845612 -93.034920 1500.390747
[chest]
11 -84.512650 -34.090519 0.000000 -1.276872 -0.755002 -154.250473 91.129311
12 -84.512650 -34.090519 0.000000 -1.289229 -0.557957 -156.101349 91.129311
[L_mid_tent01]
11 27.299116 22.179298 -249.918701 1.792589 21.006788 79.241524 252.381699
12 27.299122 22.179317 -249.918701 1.960776 22.528437 79.413589 252.381699
[R_mid_tent01]
11 23.228794 24.509907 226.238495 159.523285 -40.172359 87.756615 228.744751
12 23.228794 24.509907 226.238495 160.299652 -39.846592 86.414490 228.744751
[spine01]
11 -0.361383 -0.195265 0.000000 0.001954 0.001301 22.694639 0.410763
12 -0.361383 -0.195265 0.000000 0.001954 0.001301 22.666897 0.410763
[Bip01_Neck]
11 165.484543 71.581718 0.000119 176.643677 -1.657967 43.431911 180.302734
12 165.484543 71.581718 0.000119 176.643677 -1.657967 43.431911 180.302734
[L_humerus]
11 -13.983130 -135.272980 -120.471481 -6.952087 64.169655 82.906685 181.680161
12 -13.983130 -135.272980 -120.471481 -6.896559 64.409286 82.973518 181.680161
[R_humerus]
11 -13.983309 -135.273102 125.287651 25.756491 -64.970200 69.967506 184.909012
12 -13.983309 -135.273102 125.287651 25.842131 -65.227478 69.877800 184.909012
[weapon_bone]
11 235.964890 -300.705902 0.000000 0.000000 -89.951546 -128.212341 382.234833
12 235.964890 -300.705902 0.000000 0.000000 -89.951546 -128.212341 382.234833
[Bip01_Head]
11 213.662720 185.109848 19.599915 4.440152 -1.457900 -43.897720 283.375336
12 213.630356 185.198669 18.454056 4.440999 -1.420068 -43.901424 283.332001
[eye_left_bone]
11 -24.626970 125.451866 -64.772606 0.000000 -90.000000 -99.840431 143.318359
12 -24.626970 125.451866 -64.772606 0.000000 -90.000000 -99.840431 143.318359
[eye_right_bone]
11 -24.626970 125.451866 64.327362 0.000000 -89.965736 80.156380 143.117676
12 -24.626970 125.451866 64.327362 0.000000 -89.980217 80.156387 143.117676
[L_forearm]
11 322.776093 0.000000 -0.000119 0.000428 -0.002308 -111.017822 322.776093
12 322.776093 0.000000 -0.000119 0.000426 -0.002308 -110.933777 322.776093
[L_front_hand]
11 241.149185 -0.042021 -3.300071 -178.667953 -1.835447 -27.422350 241.171753
12 241.149185 -0.042021 -3.300071 -178.667953 -1.835447 -27.422350 241.171753
[L_weapon_bone]
11 156.183838 0.000000 0.000000 0.000014 0.000007 0.000001 156.183838
12 156.183838 0.000000 0.000000 0.000014 0.000007 0.000001 156.183838
[L_front_hand01_01]
11 86.095154 20.947098 -0.655860 -0.282467 -0.528169 66.067474 88.609184
12 86.095154 20.947098 -0.655860 -0.274633 -0.532782 65.272827 88.609184
[L_front_hand02_01]
11 86.935165 -11.437475 24.513514 141.960785 -54.937954 -46.642345 91.046425
12 86.935165 -11.437475 24.513514 141.090271 -54.445614 -45.572052 91.046425
[L_front_hand03_01]
11 86.637497 -14.123976 -20.424902 -142.303543 53.163303 -48.671032 90.126129
12 86.637497 -14.123976 -20.424902 -141.476303 52.677540 -47.637543 90.126129
[L_front_hand01_02]
11 71.020905 -0.000179 0.000030 0.000315 -0.002326 -105.442802 71.020905
12 71.020905 -0.000179 0.000030 0.000315 -0.002326 -105.419182 71.020905
[L_front_hand02_02]
11 71.020927 -0.000119 0.000060 0.000315 -0.002326 -105.442802 71.020927
12 71.020927 -0.000119 0.000060 0.000315 -0.002326 -105.419182 71.020927
[L_front_hand03_02]
11 71.020905 -0.000060 0.000060 0.000315 -0.002326 -105.442802 71.020905
12 71.020905 -0.000060 0.000060 0.000315 -0.002326 -105.419182 71.020905
[R_forearm]
11 322.776428 -0.000060 0.000030 0.201167 0.067993 -109.673996 322.776428
12 322.776428 -0.000060 0.000030 0.201222 0.067828 -109.580185 322.776428
[R_front_hand]
11 238.847015 -0.006795 2.210259 -2.635298 -10.645461 -26.312506 238.857239
12 238.847015 -0.006795 2.210259 -2.635298 -10.645461 -26.312506 238.857239
[R_weapon_bone]
11 155.664093 0.002503 -0.000030 0.003487 0.001180 -90.988930 155.664078
12 155.664093 0.002503 -0.000030 0.003487 0.001180 -90.988930 155.664078
[R_front_hand01_01]
11 87.624611 14.231146 22.918642 -141.947067 -54.924736 46.726738 91.683487
12 87.624611 14.231146 22.918642 -140.500641 -54.097107 44.955364 91.683487
[R_front_hand02_01]
11 89.356956 14.367283 -19.491137 142.634140 53.329124 49.315857 92.579636
12 89.356956 14.367283 -19.491137 141.255966 52.517570 47.591045 92.579636
[R_front_hand03_01]
11 87.286232 -22.307278 -0.143439 0.092230 -0.445770 -66.286453 90.091743
12 87.286232 -22.307278 -0.143439 0.080269 -0.445286 -64.968231 90.091743
[R_front_hand01_02]
11 71.020905 0.000060 0.000119 0.002323 -0.000334 106.381714 71.020905
12 71.020905 0.000060 0.000119 0.002323 -0.000334 106.381721 71.020905
[R_front_hand02_02]
11 71.020844 -0.000030 -0.000119 0.002323 -0.000334 106.381714 71.020836
12 71.020844 -0.000030 -0.000119 0.002323 -0.000334 106.381721 71.020836
[R_front_hand03_02]
11 71.020905 0.000000 0.000030 0.002323 -0.000334 106.381714 71.020905
12 71.020905 0.000000 0.000030 0.002323 -0.000334 106.381721 71.020905
[null_rope01_connect]
11 328.732483 0.000000 -0.000238 -144.008774 -73.720802 158.194672 328.732483
12 328.732483 0.000000 -0.000238 -146.065002 -71.489571 161.165131 328.732483
[Rope1_Seg01]
11 0.000060 -0.000022 0.000089 166.422943 49.534164 -156.426331 0.000110
12 0.000059 -0.000021 0.000083 130.137360 26.274868 -166.635773 0.000104
[Rope1_Seg02]
11 139.999863 -0.000179 0.000000 0.653813 -12.578259 11.057868 139.999863
12 139.999863 -0.000179 0.000000 7.677234 -15.120946 2.411770 139.999863
[Rope1_Seg03]
11 139.999924 0.000060 -0.000060 -2.224455 -14.360587 16.948027 139.999924
12 139.999924 0.000060 -0.000060 3.981266 -21.671516 6.908481 139.999924
[Rope1_Seg04]
11 139.999924 -0.000060 -0.000119 -1.382402 -11.774773 13.410025 139.999924
12 139.999924 -0.000060 -0.000119 -0.131276 -17.613609 7.419090 139.999924
[Rope1_Seg05]
11 139.999832 0.000119 -0.000060 -7.971956 -30.214540 7.873821 139.999832
12 139.999832 0.000119 -0.000060 -4.780879 -23.085751 10.532926 139.999832
[Rope1_Seg06]
11 139.999954 0.000119 -0.000060 -25.140036 -34.335636 3.585829 139.999954
12 139.999954 0.000119 -0.000060 -27.100616 -36.447243 16.122334 139.999954
[Rope1_Seg07]
11 139.999985 0.000060 0.000000 -17.139889 -13.869605 -3.945999 139.999985
12 139.999985 0.000060 0.000000 -27.451727 -17.340145 -0.365236 139.999985
[Rope1_Seg09]
11 121.602913 0.000119 -0.000089 -89.793175 -1.359789 0.847147 121.602913
12 121.602913 0.000119 -0.000089 -89.793175 -1.359789 0.847147 121.602913
[L_mid_hand01]
11 103.859421 1.038730 8.195221 110.016693 -43.583393 -14.630751 104.187431
12 103.859421 1.038730 8.195221 111.216125 -46.770248 -16.325296 104.187431
[L_mid_hand02]
11 105.572853 -4.139662 -10.864139 -148.402451 33.171711 -41.059566 106.211075
12 105.572853 -4.139662 -10.864139 -150.384232 34.904903 -44.592545 106.211075
[L_mid_hand03]
11 104.641464 17.579376 -3.913581 -13.575850 13.082139 47.042397 106.179977
12 104.641464 17.579376 -3.913581 -12.781254 13.855400 50.452682 106.179977
[null_rope02_connect]
11 328.732849 0.000179 -0.000119 -149.362625 41.509872 14.342072 328.732849
12 328.732849 0.000179 -0.000119 -147.599411 42.916882 14.334865 328.732849
[Rope2_Seg01]
11 0.000054 0.000089 0.000000 -90.801750 36.759865 -11.635458 0.000104
12 0.000056 0.000083 0.000000 -55.125317 15.640664 -5.862175 0.000100
[Rope2_Seg02]
11 139.999741 -0.000060 -0.000119 -11.120590 -4.087864 11.635079 139.999756
12 139.999741 -0.000060 -0.000119 -10.780011 1.970009 8.075407 139.999756
[Rope2_Seg03]
11 140.000107 0.000030 0.000000 -8.889262 -8.640369 14.903787 140.000107
12 140.000107 0.000030 0.000000 -15.934134 0.782260 16.101809 140.000107
[Rope2_Seg04]
11 139.999802 0.000000 -0.000060 -4.026343 -11.802806 12.264873 139.999802
12 139.999802 0.000000 -0.000060 -17.011179 -6.569133 30.967808 139.999802
[Rope2_Seg05]
11 139.999985 -0.000060 0.000119 -2.217247 -8.544160 11.450587 139.999985
12 139.999985 -0.000060 0.000119 -5.580587 -11.731546 23.058735 139.999985
[Rope2_Seg06]
11 139.999893 -0.000030 -0.000119 -0.916519 -16.065439 32.808945 139.999893
12 139.999893 -0.000030 -0.000119 -0.300963 -14.925899 23.289539 139.999893
[Rope2_Seg07]
11 139.999893 0.000060 -0.000060 17.407564 -14.705134 35.164555 139.999893
12 139.999893 0.000060 -0.000060 15.615585 -19.810019 35.353962 139.999893
[Rope2_Seg09]
11 121.338966 0.000089 -0.000060 33.793236 -1.359788 -0.847141 121.338966
12 121.338966 0.000089 -0.000060 33.793236 -1.359788 -0.847141 121.338966
[R_mid_hand01]
11 104.680779 11.144459 -10.335981 -36.116535 33.174706 39.598408 105.778534
12 104.680779 11.144459 -10.335981 -36.922554 32.243565 38.107742 105.778534
[R_mid_hand02]
11 104.070427 2.443552 8.231699 69.680679 -44.419243 15.065832 104.424065
12 104.070427 2.443552 8.231699 70.193451 -42.958271 14.324638 104.424065
[R_mid_hand03]
11 106.028137 -11.221827 -5.996406 -170.354065 12.593579 -49.350628 106.788818
12 106.028137 -11.221827 -5.996406 -170.013962 12.325404 -47.779564 106.788818
[spine02]
11 129.756927 0.001550 0.000119 0.520011 -4.026253 -15.224298 129.756927
12 129.756927 0.001550 0.000119 0.510883 -4.027445 -15.104171 129.756927
[spine03]
11 78.614113 0.081444 -4.899010 1.991017 3.784849 17.911835 78.766655
12 78.614120 0.081425 -4.899010 1.985755 3.786712 17.826534 78.766663
[pelvis]
11 169.435242 0.051022 0.000000 -0.069913 -0.177901 16.998087 169.435257
12 169.435242 0.051022 0.000000 -0.069680 -0.177992 16.848083 169.435257
[null_rope03_connect]
11 -1.257226 -2.466202 137.391083 -18.535467 -81.505974 70.145012 137.418976
12 -1.257226 -2.466202 137.391083 -19.761257 -82.371490 72.543404 137.418976
[null_rope04_connect]
11 -1.259640 -2.480268 -137.844437 -18.535467 -81.505974 70.145012 137.872513
12 -1.259640 -2.480268 -137.844437 -19.761257 -82.371490 72.543404 137.872513
[Rope3_Seg01]
11 0.000010 0.000022 -0.000089 -128.299744 56.135460 -66.158195 0.000092
12 0.000010 0.000021 -0.000083 -124.379074 52.522102 -61.614285 0.000086
[Rope3_Seg02]
11 139.999924 -0.000119 0.000060 -0.643566 -1.608668 5.047603 139.999924
12 139.999924 -0.000119 0.000060 -0.371350 -0.462726 6.495463 139.999924
[Rope3_Seg03]
11 139.999924 -0.000119 0.000119 -1.062477 -1.876823 5.700047 139.999924
12 139.999924 -0.000119 0.000119 -0.944666 -0.589773 7.613994 139.999924
[Rope3_Seg04]
11 139.999924 0.000119 0.000000 -2.075186 -2.659271 7.447031 139.999924
12 139.999924 0.000119 0.000000 -2.411824 -0.889817 10.726282 139.999924
[Rope3_Seg05]
11 139.999924 -0.000238 0.000060 -3.340138 -3.612639 8.986756 139.999924
12 139.999924 -0.000238 0.000060 -4.528428 -1.488767 12.633922 139.999924
[Rope3_Seg06]
11 139.999893 -0.000119 -0.000060 -0.699687 -0.985912 2.738110 139.999893
12 139.999893 -0.000119 -0.000060 -0.643132 -0.745084 1.791371 139.999893
[Rope3_Seg07]
11 139.999771 0.000060 -0.000119 2.227656 2.335611 -3.456402 139.999771
12 139.999771 0.000060 -0.000119 3.629928 0.939530 -8.904408 139.999771
[Rope3_Seg08]
11 139.999985 -0.000060 0.000000 1.430864 1.319598 -1.752742 139.999985
12 139.999985 -0.000060 0.000000 1.892776 0.007592 -5.451163 139.999985
[Rope3_Seg09]
11 90.185997 -0.000179 -0.000060 89.793228 -1.359877 -0.847183 90.185997
12 90.185997 -0.000179 -0.000060 89.793228 -1.359877 -0.847183 90.185997
[R_rear_hand01]
11 103.366196 -6.073594 -10.757982 -165.009155 19.819437 -41.100956 104.101845
12 103.366196 -6.073594 -10.757982 -164.755127 19.627697 -40.352161 104.101845
[R_rear_hand02]
11 100.509819 12.039542 -7.992327 -30.502344 25.155792 38.836960 101.543350
12 100.509819 12.039542 -7.992327 -30.792652 24.782448 38.141541 101.543350
[R_rear_hand03]
11 101.539970 5.215704 5.435467 82.364601 -41.773376 8.967985 101.819031
12 101.539970 5.215704 5.435467 82.448349 -41.048256 8.840378 101.819031
[Rope4_Seg01]
11 -0.000015 -0.000022 -0.000343 48.874969 41.696602 -108.647240 0.000344
12 -0.000015 -0.000021 -0.000362 41.373280 36.966328 -120.414505 0.000363
[Rope4_Seg02]
11 139.999985 0.000060 0.000119 1.722546 15.909729 -12.042093 139.999985
12 139.999985 0.000060 0.000119 -0.182175 21.490240 -7.311838 139.999985
[Rope4_Seg03]
11 139.999924 0.000000 -0.000238 2.433684 6.847091 -6.884234 139.999924
12 139.999924 0.000000 -0.000238 2.445220 11.980812 -4.697312 139.999924
[Rope4_Seg04]
11 139.999985 0.000000 0.000119 1.938358 3.299567 -4.976693 139.999985
12 139.999985 0.000000 0.000119 2.779309 7.309627 -3.951029 139.999985
[Rope4_Seg05]
11 139.999802 -0.000060 -0.000119 0.583980 1.825407 -0.706264 139.999802
12 139.999802 -0.000060 -0.000119 0.874121 2.395461 -0.623166 139.999802
[Rope4_Seg06]
11 139.999924 0.000000 0.000060 -0.210350 1.899553 1.833355 139.999924
12 139.999924 0.000000 0.000060 -0.545803 0.478970 1.557349 139.999924
[Rope4_Seg07]
11 139.999802 0.000000 0.000000 -1.821835 3.196839 6.208498 139.999802
12 139.999802 0.000000 0.000000 -2.843235 -1.418600 5.025614 139.999802
[Rope4_Seg08]
11 139.999924 0.000000 0.000119 -3.725667 3.534264 5.914402 139.999924
12 139.999924 0.000000 0.000119 -3.916598 -0.599220 4.293822 139.999924
[Rope4_Seg09]
11 90.185791 0.000060 0.000060 -135.617828 2.228885 0.850567 90.185791
12 90.185791 0.000060 0.000060 -135.617828 2.228885 0.850567 90.185791
[L_rear_hand01]
11 101.696655 -8.392275 -7.654577 -28.015862 -27.942142 135.607529 102.329041
12 101.696655 -8.392275 -7.654577 -26.077681 -29.734324 131.595932 102.329041
[L_rear_hand02]
11 102.726799 -1.568258 5.773216 81.577332 47.415264 169.913025 102.900848
12 102.726799 -1.568258 5.773216 80.880577 51.310966 168.995010 102.900848
[L_rear_hand03]
11 104.552910 9.721220 -10.420293 -167.078079 -21.194330 -132.993347 105.519653
12 104.552910 9.721220 -10.420293 -168.606277 -22.023735 -128.845840 105.519653
